<?xml version="1.0" encoding="utf-8"?>
<!-- Generator: Adobe Illustrator 17.0.0, SVG Export Plug-In . SVG Version: 6.00 Build 0)  -->
<!DOCTYPE svg PUBLIC "-//W3C//DTD SVG 1.1//EN" "http://www.w3.org/Graphics/SVG/1.1/DTD/svg11.dtd">
<svg version="1.1" id="Layer_1" xmlns="http://www.w3.org/2000/svg" xmlns:xlink="http://www.w3.org/1999/xlink" x="0px" y="0px"
	 width="240px" height="240px" viewBox="0 0 240 240" enable-background="new 0 0 240 240" xml:space="preserve">
<rect fill="none" width="240" height="240"/>
<g>
	<path fill="#FFFFFF" d="M120,117.604c12.151,0,22-12.338,22-26.432s-9.85-24.609-22-24.609S98,77.078,98,91.172
		S107.849,117.604,120,117.604z"/>
	<path fill="#FFFFFF" d="M140.625,126.719c-1.937,0-3.816,0.28-5.622,0.783L135,127.488c-3.655,1.054-9.263,2.879-15,2.876h-0.001
		h-0.001c-5.736,0.002-11.344-1.822-15-2.876l-0.002,0.014c-1.806-0.503-3.685-0.783-5.622-0.783
		C85.913,126.719,75,139.573,75,155.43v3.945c0,3.107,2.518,5.625,5.625,5.625h78.75c3.107,0,5.625-2.518,5.625-5.625v-3.945
		C165,139.573,154.087,126.719,140.625,126.719z"/>
</g>
</svg>
