<?xml version="1.0" encoding="utf-8"?>
<!-- Generator: Adobe Illustrator 17.0.0, SVG Export Plug-In . SVG Version: 6.00 Build 0)  -->
<!DOCTYPE svg PUBLIC "-//W3C//DTD SVG 1.1//EN" "http://www.w3.org/Graphics/SVG/1.1/DTD/svg11.dtd">
<svg version="1.1" id="Layer_1" xmlns="http://www.w3.org/2000/svg" xmlns:xlink="http://www.w3.org/1999/xlink" x="0px" y="0px"
	 width="240px" height="240px" viewBox="0 0 240 240" enable-background="new 0 0 240 240" xml:space="preserve">
<rect fill="none" width="240" height="240"/>
<g>
	<path fill="#FFFFFF" d="M90.938,109.86c7.341,0,13.292-7.52,13.292-16.111s-5.951-15-13.292-15s-13.292,6.409-13.292,15
		S83.597,109.86,90.938,109.86z"/>
	<path fill="#FFFFFF" d="M131.25,117.958c10.125,0,18.334-10.384,18.334-22.247s-8.208-20.713-18.334-20.713
		s-18.334,8.85-18.334,20.713S121.125,117.958,131.25,117.958z"/>
	<path fill="#FFFFFF" d="M109.007,116.737c-1.729-0.848-3.622-1.322-5.609-1.322c-1.17,0-2.306,0.17-3.397,0.477L100,115.884
		c-2.208,0.643-5.597,1.755-9.062,1.753c-3.466,0.001-6.854-1.111-9.062-1.753l-0.001,0.009c-1.091-0.307-2.227-0.477-3.397-0.477
		c-8.133,0-14.726,7.835-14.726,17.5v2.405c0,1.893,1.521,3.428,3.398,3.428h18.827C89.45,127.406,98.247,118.815,109.007,116.737z"
		/>
	<path fill="#FFFFFF" d="M157.244,127.981c-2.664-1.511-5.651-2.357-8.806-2.357c-1.575,0-3.102,0.225-4.571,0.624
		c-0.038,0.01-0.076,0.017-0.114,0.028l-0.002-0.012c-2.244,0.647-5.374,1.638-8.777,2.116c-0.059,0.008-0.116,0.02-0.175,0.028
		c-0.361,0.049-0.73,0.079-1.096,0.115c-0.221,0.022-0.439,0.053-0.662,0.069c-0.288,0.021-0.58,0.021-0.87,0.033
		c-0.307,0.012-0.612,0.034-0.919,0.034h-0.001h-0.001c-0.31,0-0.617-0.022-0.926-0.034c-0.288-0.011-0.578-0.011-0.864-0.032
		c-0.334-0.024-0.662-0.068-0.992-0.104c-0.254-0.028-0.512-0.046-0.763-0.08c-3.473-0.468-6.672-1.487-8.956-2.144l-0.002,0.012
		c-1.505-0.419-3.071-0.652-4.685-0.652c-11.218,0-20.312,10.703-20.312,23.906v3.285c0,2.586,2.098,4.683,4.687,4.683h0.001h65.624
		h0.001h0.001c2.589,0,4.687-2.097,4.687-4.683v-3.285C168.75,140.04,164.052,131.842,157.244,127.981z"/>
</g>
</svg>
