<?xml version="1.0" encoding="utf-8"?>
<svg version="1.1" id="Icons" xmlns="http://www.w3.org/2000/svg" xmlns:xlink="http://www.w3.org/1999/xlink" x="0px" y="0px"
	 width="266px" height="32px" viewBox="0 0 266 32" xml:space="preserve">
<path opacity="0.3" fill="#333339" enable-background="new    " d="M51.627,12.316c-0.396,0-0.822,0.045-1.28,0.144
	c-3.198,0.737-3.506,4.297-3.506,4.297s-3.629,0.123-3.629,3.438c0,1.903,0.984,3.806,3.752,3.806c0.922,0,14.515,0,14.515,0
	C63.262,24,64,22.465,64,21.115c0-2.762-2.522-3.008-2.522-3.008c0.061-2.026-1.045-3.253-2.215-3.744
	c-0.599-0.261-1.175-0.352-1.687-0.352c-1.17,0-2.003,0.475-2.003,0.475C54.904,13.509,53.673,12.316,51.627,12.316z M51.795,8
	c-2.177,0-3.959,1.264-4.892,2.988c0,0-0.905-0.564-2.197-0.564c-0.613,0-1.314,0.127-2.048,0.502
	c-1.599,0.86-2.583,2.762-2.398,4.604c0,0-3.26,0.246-3.26,3.744c0,1.903,1.723,3.622,3.629,3.622c2.398,0,2.398,0,2.398,0
	c-0.615-0.92-0.738-1.842-0.738-2.578c0-3.684,3.875-4.235,3.875-4.235s0.492-3.499,3.936-4.358c0.558-0.136,1.086-0.198,1.58-0.198
	c1.958,0,3.39,0.961,4.078,2.039c0,0,0.615-0.368,1.906-0.368c-0.124-1.167-0.984-3.683-3.69-4.788C53.217,8.127,52.486,8,51.795,8z
	"/>
<path fill="#00AFF0" d="M147.809,18.714c0.161-0.88,0.24-1.784,0.24-2.71c0-8.313-6.736-15.057-15.049-15.057
	c-0.927,0-1.834,0.084-2.714,0.244c-1.278-0.71-2.749-1.115-4.315-1.115c-4.913,0-8.895,3.982-8.895,8.895
	c0,1.565,0.405,3.037,1.115,4.315c-0.16,0.88-0.24,1.791-0.24,2.718c0,8.313,6.735,15.048,15.048,15.048
	c0.926,0,1.833-0.083,2.714-0.244c1.278,0.71,2.749,1.115,4.315,1.115c4.913,0,8.895-3.982,8.895-8.895
	C148.923,21.463,148.519,19.992,147.809,18.714z M133.069,25.54c-5.343,0-7.733-2.632-7.733-4.606c0-1.012,0.746-1.721,1.773-1.721
	c2.286,0,1.694,3.291,5.96,3.291c2.184,0,3.389-1.188,3.389-2.405c0-0.731-0.36-1.542-1.798-1.897l-4.752-1.19
	c-3.827-0.962-4.522-3.035-4.522-4.985c0-4.048,3.802-5.567,7.373-5.567c3.288,0,7.166,1.822,7.166,4.25
	c0,1.041-0.899,1.646-1.926,1.646c-1.952,0-1.592-2.708-5.522-2.708c-1.951,0-3.032,0.886-3.032,2.152
	c0,1.264,1.541,1.668,2.878,1.974l3.518,0.782c3.852,0.86,4.83,3.115,4.83,5.239C140.671,23.085,138.153,25.54,133.069,25.54z"/>
<path opacity="0.3" fill="#333339" enable-background="new    " d="M175.024,13.911l-0.016,0.016
	c-0.442,0.317-1.928,1.582-3.351,3.1c-1.596,1.74-3.176,3.59-3.24,4.872v0.032l0.016,0.111v0.032l0.032,0.079
	c1.643,1.74,3.983,2.847,6.543,2.847c2.623,0,4.994-1.123,6.638-2.926v-0.032v-0.127l-0.016-0.142
	c-0.142-1.265-1.675-3.037-3.224-4.73C177,15.526,175.767,14.545,175.024,13.911z M169.224,9.246l-0.221,0.048
	C167.17,10.939,166,13.343,166,16c0,2.198,0.822,4.224,2.15,5.806c-0.538-0.712-0.127-2.325,0.68-4.002
	c0.284-0.585,0.632-1.171,0.995-1.756c1.359-2.215,3.051-4.097,3.051-4.097c-1.185-1.297-2.339-2.167-2.94-2.5
	c-0.158-0.079-0.317-0.142-0.459-0.174l-0.032-0.016L169.224,9.246z M180.808,9.246l-0.221,0.016h-0.032l-0.063,0.016
	c-0.711,0.238-2.023,1.281-3.303,2.626c0,0,1.643,1.914,3.066,4.112c0.363,0.57,0.663,1.171,0.964,1.756
	c0.759,1.471,1.233,3.258,0.648,4.049C183.195,20.255,184,18.215,184,16c0-2.673-1.17-5.094-3.034-6.739L180.808,9.246z
	 M169.915,8.589l-0.012,0.008L169.915,8.589z M175.009,6.999c-1.891,0-3.657,0.582-5.092,1.589c0.109-0.075,0.247-0.136,0.414-0.182
	c0.101-0.023,0.22-0.033,0.353-0.033c0.51,0,1.217,0.159,1.844,0.398c1.074,0.411,2.118,1.029,2.497,1.281
	c0.396-0.253,1.391-0.839,2.465-1.265c0.544-0.216,1.21-0.401,1.795-0.401c0.145,0,0.286,0.012,0.417,0.036
	c0.142,0.032,0.269,0.079,0.363,0.142C178.627,7.585,176.889,6.999,175.009,6.999z"/>
<path opacity="0.3" fill="#333339" enable-background="new    " d="M216.049,16.742H209v5.898l7.049,1.041V16.742z M226,16.742
	h-9.26v6.939l9.26,1.318V16.742z M216.049,9.318L209,10.359v5.69h7.049V9.318z M226,8l-9.26,1.318v6.731H226V8z"/>
<path opacity="0.3" fill="#333339" enable-background="new    " d="M257.018,12.053l1.482,4.027l2.849,1.361l-10.348,5.541
	l4.044,2.886L266,19.494v-4.576L257.018,12.053z M251,7v15.981l4.01-4.057V8.263L251,7z"/>
<path opacity="0.3" fill="#333339" enable-background="new    " d="M99.408,10.995h-5.907v3.312l2.18,1.789L100,12.01v-0.422
	C99.999,11.172,99.822,10.995,99.408,10.995z"/>
<path opacity="0.3" fill="#333339" enable-background="new    " d="M99.998,13.212l-3.907,3.696
	c-0.108,0.102-0.246,0.153-0.385,0.153c-0.126,0-0.252-0.042-0.356-0.127L93.5,15.416v5.646h5.907c0.414,0,0.591-0.178,0.591-0.592
	V13.212z M99.999,13.211L99.999,13.211L99.999,13.211L99.999,13.211z"/>
<path opacity="0.3" fill="#333339" enable-background="new    " d="M87.46,19.702l-0.197-0.006
	c-0.211-0.013-0.413-0.046-0.603-0.097c-0.189-0.052-0.368-0.123-0.536-0.214c-0.168-0.09-0.325-0.198-0.473-0.326
	c-0.147-0.128-0.283-0.274-0.411-0.439c-0.127-0.167-0.24-0.344-0.336-0.532c-0.095-0.188-0.174-0.387-0.236-0.598
	c-0.064-0.211-0.111-0.432-0.142-0.665c-0.032-0.233-0.047-0.478-0.047-0.735c0-0.267,0.015-0.522,0.046-0.763
	c0.031-0.243,0.077-0.473,0.139-0.691c0.062-0.218,0.141-0.425,0.233-0.62c0.093-0.196,0.203-0.381,0.329-0.552
	c0.128-0.178,0.269-0.335,0.421-0.473c0.152-0.138,0.317-0.254,0.494-0.352c0.178-0.098,0.367-0.174,0.57-0.23
	c0.203-0.057,0.422-0.091,0.65-0.106l0.189-0.006c0.147,0,0.289,0.011,0.429,0.032c0.197,0.031,0.386,0.083,0.567,0.157
	c0.182,0.075,0.352,0.171,0.513,0.292c0.164,0.12,0.316,0.263,0.459,0.427c0.144,0.167,0.269,0.349,0.377,0.545
	c0.109,0.198,0.2,0.412,0.273,0.641c0.072,0.229,0.128,0.473,0.165,0.733c0.036,0.259,0.055,0.533,0.055,0.823
	c0,0.296-0.02,0.578-0.057,0.844c-0.038,0.266-0.095,0.518-0.171,0.753c-0.075,0.236-0.17,0.455-0.282,0.659
	c-0.113,0.203-0.243,0.39-0.392,0.562c-0.147,0.169-0.305,0.316-0.473,0.441c-0.168,0.123-0.344,0.223-0.531,0.3
	c-0.185,0.078-0.379,0.131-0.585,0.162C87.757,19.691,87.61,19.702,87.46,19.702z M92.941,6.969L82,9.472v13.091L92.941,25V6.969z"
	/>
<path opacity="0.3" fill="#333339" enable-background="new    " d="M87.376,13.779l-0.054,0.001
	c-0.117,0.004-0.226,0.021-0.329,0.052c-0.105,0.03-0.2,0.073-0.291,0.129c-0.091,0.055-0.175,0.125-0.252,0.206
	c-0.077,0.08-0.149,0.174-0.212,0.28c-0.063,0.102-0.117,0.21-0.164,0.326c-0.047,0.116-0.086,0.239-0.118,0.369
	c-0.029,0.13-0.052,0.267-0.068,0.412c-0.016,0.145-0.023,0.297-0.023,0.457c0,0.172,0.008,0.333,0.025,0.487
	c0.017,0.153,0.043,0.297,0.077,0.433c0.034,0.136,0.078,0.262,0.129,0.379c0.051,0.118,0.112,0.227,0.18,0.326
	c0.065,0.093,0.135,0.175,0.208,0.246l0.237,0.18c0.084,0.049,0.174,0.086,0.268,0.113c0.096,0.027,0.196,0.041,0.301,0.046
	l0.059,0.001l0.252-0.024c0.099-0.019,0.193-0.05,0.281-0.091l0.251-0.164l0.22-0.234c0.072-0.097,0.138-0.204,0.192-0.322
	c0.055-0.118,0.1-0.246,0.138-0.386c0.036-0.139,0.064-0.289,0.082-0.45c0.018-0.16,0.028-0.331,0.028-0.512
	c0-0.185-0.009-0.36-0.026-0.523c-0.018-0.164-0.043-0.318-0.078-0.46c-0.035-0.143-0.078-0.275-0.131-0.396
	c-0.051-0.12-0.111-0.23-0.179-0.33c-0.067-0.096-0.138-0.179-0.215-0.25l-0.247-0.176c-0.089-0.046-0.182-0.08-0.281-0.1
	C87.554,13.787,87.467,13.779,87.376,13.779z"/>
<path opacity="0.3" fill="#333339" d="M0,21.437L0,21.437 M10,7l-9.974,3.625H0v10.812l2.968-1.611v-8.794L10,9.835v12.936L0,21.437
	L10,25l4.995-1.483v-0.018V8.545L10,7"/>
</svg>
